<?xml version="1.0" encoding="UTF-8" standalone="no"?>
<svg width="1291px" height="549px" viewBox="0 0 1291 549" version="1.1" xmlns="http://www.w3.org/2000/svg" xmlns:xlink="http://www.w3.org/1999/xlink">
    <!-- Generator: Sketch 3.7.1 (28215) - http://www.bohemiancoding.com/sketch -->
    <title>Graphics</title>
    <desc>Created with Sketch.</desc>
    <defs>
        <linearGradient x1="55.2264232%" y1="0.273905232%" x2="44.7735768%" y2="99.7260948%" id="linearGradient-1">
            <stop stop-color="#FFFFFF" offset="0%"></stop>
            <stop stop-color="#000000" offset="100%"></stop>
        </linearGradient>
        <rect id="path-2" x="8.88529549" y="15.0653355" width="56.8333602" height="55.9428352"></rect>
        <rect id="path-3" x="14.2937687" y="8.48885619" width="56.8333602" height="55.9428352"></rect>
        <mask id="mask-4" maskContentUnits="userSpaceOnUse" maskUnits="objectBoundingBox" x="0" y="0" width="62.3696397" height="61.5770783" fill="white">
            <use xlink:href="#path-3"></use>
        </mask>
        <linearGradient x1="50%" y1="0%" x2="50%" y2="100%" id="linearGradient-5">
            <stop stop-color="#FFFFFF" offset="0%"></stop>
            <stop stop-color="#000000" stop-opacity="0.5" offset="100%"></stop>
        </linearGradient>
        <rect id="path-6" x="3.78059536" y="14.513016" width="69.8714434" height="69.8714434"></rect>
        <rect id="path-7" x="16.008098" y="4.03229949" width="69.8714434" height="69.8714434"></rect>
        <mask id="mask-8" maskContentUnits="userSpaceOnUse" maskUnits="objectBoundingBox" x="0" y="0" width="69.8714434" height="69.8714434" fill="white">
            <use xlink:href="#path-7"></use>
        </mask>
        <linearGradient x1="50%" y1="0%" x2="50%" y2="100%" id="linearGradient-9">
            <stop stop-color="#FFFFFF" stop-opacity="0.5" offset="0%"></stop>
            <stop stop-color="#000000" stop-opacity="0.5" offset="100%"></stop>
        </linearGradient>
        <rect id="path-10" x="4.03383901" y="9.29735447" width="59.0844282" height="59.0844282"></rect>
        <rect id="path-11" x="8.30500249" y="3.75526897" width="59.0844282" height="59.0844282"></rect>
        <mask id="mask-12" maskContentUnits="userSpaceOnUse" maskUnits="objectBoundingBox" x="0" y="0" width="59.0844282" height="59.0844282" fill="white">
            <use xlink:href="#path-11"></use>
        </mask>
        <rect id="path-13" x="12.554423" y="10.0412796" width="77.5001756" height="77.5001756"></rect>
        <rect id="path-14" x="6.50274911" y="6.25860499" width="77.5001756" height="77.5001756"></rect>
        <mask id="mask-15" maskContentUnits="userSpaceOnUse" maskUnits="objectBoundingBox" x="0" y="0" width="77.5001756" height="77.5001756" fill="white">
            <use xlink:href="#path-14"></use>
        </mask>
        <rect id="path-16" x="7.23749929" y="16.9377458" width="74.0750807" height="72.9143943"></rect>
        <rect id="path-17" x="14.2393923" y="7.93504964" width="73.8099851" height="73.5885784"></rect>
        <mask id="mask-18" maskContentUnits="userSpaceOnUse" maskUnits="objectBoundingBox" x="0" y="0" width="81" height="81" fill="white">
            <use xlink:href="#path-17"></use>
        </mask>
    </defs>
    <g id="Page-1" stroke="none" stroke-width="1" fill="none" fill-rule="evenodd">
        <g id="Web" transform="translate(-72.000000, -85.000000)">
            <g id="Graphics" transform="translate(60.000000, 85.000000)">
                <g id="Group-8" opacity="0.5" transform="translate(50.214711, 78.243001)" fill="#666666">
                    <path d="M1047.39459,234.317013 C1045.60669,234.317013 1044.80852,232.6033 1044.16623,231.225757 C1044.07139,231.020111 1043.97561,230.815405 1043.87795,230.617272 C1043.21688,229.277289 1042.61497,228.38522 1041.82994,228.38522 C1041.31067,228.38522 1040.89092,227.964538 1040.89092,227.446199 C1040.89092,226.927859 1041.31067,226.507178 1041.82994,226.507178 C1043.94368,226.507178 1044.99633,228.640633 1045.56162,229.786238 C1045.66491,229.99564 1045.76726,230.213493 1045.86962,230.433224 C1046.41613,231.607938 1046.8462,232.438972 1047.39459,232.438972 C1048.02749,232.438972 1048.55803,231.323415 1049.02661,230.338382 L1049.28108,229.811592 C1049.86703,228.623731 1050.84925,226.633946 1052.96017,226.633946 C1054.89925,226.633946 1055.72183,228.301647 1056.4477,229.774031 L1056.55756,229.996579 C1057.09093,231.07927 1057.75575,232.425825 1058.52575,232.425825 C1059.52581,232.425825 1060.43666,230.58065 1060.73621,229.974042 C1060.84138,229.759007 1060.94185,229.542093 1061.03857,229.328935 C1061.60668,228.090367 1062.31376,226.550373 1064.08476,226.550373 C1065.96844,226.550373 1066.79853,228.247183 1067.46524,229.609702 L1067.60327,229.891409 C1068.36106,231.428585 1068.93481,232.027681 1069.64846,232.027681 C1070.13675,232.027681 1070.89173,231.811706 1071.81197,229.949628 L1072.01855,229.523313 C1072.65521,228.199293 1073.37732,226.697799 1075.21498,226.697799 C1077.1381,226.697799 1077.93345,228.314793 1078.63584,229.742104 L1078.71378,229.900799 C1079.40772,231.306513 1080.02465,232.242716 1080.78057,232.242716 C1081.4022,232.242716 1081.8379,231.437976 1082.43043,230.210676 L1082.63232,229.795629 C1083.36006,228.324183 1084.36951,226.820811 1086.34521,226.820811 C1088.20823,226.820811 1088.92846,228.303525 1089.56511,229.612519 L1089.7332,229.956201 C1090.56423,231.637048 1091.37555,231.832364 1091.91267,231.832364 C1092.62257,231.832364 1093.07048,231.362854 1093.82921,229.826616 C1094.3945,228.68195 1095.34104,226.765409 1097.47731,226.765409 C1099.46992,226.765409 1100.52256,228.377707 1101.2165,229.782482 L1101.43247,230.226639 C1102.02687,231.460512 1102.43065,232.209851 1103.04665,232.209851 C1103.79317,232.209851 1104.54157,231.459573 1105.27401,229.978738 C1105.38481,229.754312 1105.48811,229.527069 1105.58952,229.30546 C1106.15199,228.070648 1106.8525,226.53441 1108.6188,226.53441 C1110.4283,226.53441 1111.18327,228.131684 1111.78988,229.413447 C1111.87251,229.588105 1111.95609,229.764641 1112.04248,229.940238 C1112.94018,231.753487 1113.66229,231.986364 1114.1919,231.986364 C1114.71118,231.986364 1115.13092,232.406106 1115.13092,232.925384 C1115.13092,233.443724 1114.71118,233.864405 1114.1919,233.864405 C1112.12793,233.864405 1111.01613,232.099985 1110.35881,230.77221 C1110.26679,230.587223 1110.17852,230.401297 1110.09213,230.21631 C1109.49961,228.962717 1109.18034,228.412451 1108.6188,228.412451 C1108.11267,228.412451 1107.82721,228.922339 1107.29854,230.083908 C1107.18867,230.324297 1107.07693,230.569382 1106.95767,230.81071 C1106.55671,231.621085 1105.3388,234.087892 1103.04665,234.087892 C1101.20711,234.087892 1100.39297,232.398594 1099.74035,231.04077 L1099.53283,230.614454 C1098.72433,228.977742 1098.12618,228.64345 1097.47731,228.64345 C1096.75239,228.64345 1096.25658,229.15146 1095.51288,230.658588 C1094.91284,231.873681 1094.00575,233.710406 1091.91267,233.710406 C1090.30694,233.710406 1089.00734,232.727251 1088.04953,230.789112 L1087.87488,230.433224 C1087.21193,229.067888 1086.94712,228.698852 1086.34521,228.698852 C1085.68038,228.698852 1085.10946,229.020936 1084.31598,230.626662 L1084.12161,231.027624 C1083.45584,232.406106 1082.62762,234.120758 1080.78057,234.120758 C1078.70345,234.120758 1077.65644,231.99951 1077.03011,230.732771 L1076.9503,230.57126 C1076.2526,229.153338 1075.90047,228.575841 1075.21498,228.575841 C1074.61401,228.575841 1074.32573,229.059436 1073.71067,230.337443 L1073.49564,230.780661 C1073.11439,231.553475 1071.95376,233.905722 1069.64846,233.905722 C1067.48965,233.905722 1066.4295,231.755365 1065.91961,230.723381 L1065.77782,230.435102 C1065.11017,229.070705 1064.72611,228.428414 1064.08476,228.428414 C1063.57205,228.428414 1063.28283,228.94112 1062.74665,230.111139 C1062.64054,230.34026 1062.53443,230.573138 1062.41987,230.804137 C1061.61701,232.433337 1060.44699,234.303867 1058.52575,234.303867 C1056.58855,234.303867 1055.63732,232.376996 1054.87296,230.828551 L1054.76309,230.604125 C1054.04568,229.149582 1053.6588,228.511987 1052.96017,228.511987 C1052.26341,228.511987 1051.74132,229.069766 1050.96475,230.642625 L1050.72248,231.14594 C1050.05014,232.558227 1049.21347,234.317013 1047.39459,234.317013" id="Fill-3"></path>
                    <path d="M540.58244,11.9404929 C538.116828,11.9404929 536.964487,9.5316798 535.948122,7.40600335 L535.706294,6.90169306 C534.643455,4.71147178 533.713149,3.03588795 532.234642,3.03588795 C531.066811,3.03588795 530.473859,4.2063009 529.602934,6.11682791 C529.455772,6.44041267 529.306889,6.76657922 529.151981,7.08758218 C528.193275,9.06351463 526.607193,11.6891984 523.891147,11.6891984 C521.537412,11.6891984 520.546003,9.53856459 519.670776,7.64180713 C519.539104,7.35608868 519.405711,7.06692783 519.266295,6.77948818 C518.211202,4.60217586 517.029601,2.58751652 515.545931,2.58751652 C514.027836,2.58751652 512.908198,4.90080328 512.008013,6.75883384 L511.965844,6.84661481 C511.841918,7.10221234 511.720574,7.36211286 511.599229,7.62115279 C510.656014,9.64441811 509.58543,11.9370505 507.203296,11.9370505 C504.846979,11.9370505 503.804795,9.67884202 502.885677,7.68655822 C502.753145,7.39825797 502.620613,7.10995772 502.482917,6.82682106 C501.408031,4.61078184 500.326259,3.66498491 498.862382,3.66498491 C497.366664,3.66498491 496.231535,4.63057559 495.180745,6.79756074 C495.032722,7.10393354 494.889863,7.41719112 494.747865,7.72786691 C493.862309,9.67023604 492.857131,11.8716451 490.52233,11.8716451 C488.153104,11.8716451 487.11092,9.62548496 486.191802,7.64352833 C486.064433,7.36985824 485.937925,7.09532756 485.807115,6.82423927 C484.544618,4.22179166 483.493828,3.15981403 482.180556,3.15981403 C481.704645,3.15981403 481.319958,2.77426623 481.319958,2.29921627 C481.319958,1.82416631 481.704645,1.43861852 482.180556,1.43861852 C484.760628,1.43861852 486.243438,3.7820262 487.354469,6.07379802 C487.491304,6.3526317 487.622115,6.63662896 487.752926,6.91890502 C488.685814,8.92926138 489.338147,10.1504496 490.52233,10.1504496 C491.667785,10.1504496 492.291719,8.96540648 493.182437,7.01357077 C493.329599,6.69084661 493.478483,6.36554066 493.631669,6.04711949 C494.486243,4.28547589 495.957004,1.9437894 498.862382,1.9437894 C501.668792,1.9437894 503.099105,4.15208324 504.031133,6.07637982 C504.173131,6.36898305 504.311687,6.66761048 504.449383,6.9653773 C505.38141,8.98778202 506.032883,10.215855 507.203296,10.215855 C508.402969,10.215855 509.075957,8.96024289 510.039826,6.89308709 C510.163752,6.62630178 510.289399,6.35865588 510.416768,6.09617357 L510.458937,6.00925319 C511.568248,3.71748137 512.949507,0.866321009 515.545931,0.866321009 C518.098463,0.866321009 519.60451,3.53159226 520.81451,6.02904694 C520.95909,6.32595317 521.096786,6.62544119 521.234482,6.92062622 C522.104546,8.81049889 522.70008,9.96800287 523.891147,9.96800287 C525.240564,9.96800287 526.385159,8.84836519 527.602905,6.33714094 C527.752649,6.02818634 527.895508,5.71406816 528.037507,5.40339237 C528.910153,3.48684117 529.900701,1.31469244 532.234642,1.31469244 C534.908519,1.31469244 536.209743,3.99545445 537.254509,6.14953063 L537.5015,6.66330749 C538.528194,8.81135948 539.297568,10.2192974 540.58244,10.2192974 C541.652163,10.2192974 542.225322,9.08589017 543.042889,7.21839304 C543.221894,6.8096091 543.402619,6.39738278 543.597114,5.99720482 C544.954277,3.19681973 546.749484,1.77597284 548.931099,1.77597284 C549.40701,1.77597284 549.791697,2.16152063 549.791697,2.63657059 C549.791697,3.11248115 549.40701,3.49716835 548.931099,3.49716835 C547.444847,3.49716835 546.205586,4.56086717 545.14533,6.74850666 C544.961162,7.12803027 544.789903,7.52046285 544.619504,7.90859244 C543.79247,9.79846511 542.855279,11.9404929 540.58244,11.9404929" id="Fill-1"></path>
                    <path d="M1218.47856,457.258517 C1216.01295,457.258517 1214.86061,454.849704 1213.84424,452.724027 L1213.60241,452.219717 C1212.53958,450.029496 1211.60927,448.353912 1210.13076,448.353912 C1208.96293,448.353912 1208.36998,449.524325 1207.49906,451.434852 C1207.35189,451.758437 1207.20301,452.084603 1207.0481,452.405606 C1206.0894,454.381539 1204.50331,457.007223 1201.78727,457.007223 C1199.43353,457.007223 1198.44212,454.856589 1197.5669,452.959831 C1197.43523,452.674113 1197.30183,452.384952 1197.16242,452.097512 C1196.10732,449.9202 1194.92572,447.905541 1193.44205,447.905541 C1191.92396,447.905541 1190.80432,450.218827 1189.90413,452.076858 L1189.86197,452.164639 C1189.73804,452.420236 1189.61669,452.680137 1189.49535,452.939177 C1188.55214,454.962442 1187.48155,457.255075 1185.09942,457.255075 C1182.7431,457.255075 1181.70092,454.996866 1180.7818,453.004582 C1180.64927,452.716282 1180.51673,452.427982 1180.37904,452.144845 C1179.30415,449.928806 1178.22238,448.983009 1176.7585,448.983009 C1175.26278,448.983009 1174.12766,449.9486 1173.07687,452.115585 C1172.92884,452.421958 1172.78598,452.735215 1172.64399,453.045891 C1171.75843,454.98826 1170.75325,457.189669 1168.41845,457.189669 C1166.04923,457.189669 1165.00704,454.943509 1164.08792,452.961552 C1163.96055,452.687882 1163.83405,452.413352 1163.70324,452.142263 C1162.44074,449.539816 1161.38995,448.477838 1160.07668,448.477838 C1159.60077,448.477838 1159.21608,448.09229 1159.21608,447.61724 C1159.21608,447.14219 1159.60077,446.756643 1160.07668,446.756643 C1162.65675,446.756643 1164.13956,449.10005 1165.25059,451.391822 C1165.38743,451.670656 1165.51824,451.954653 1165.64905,452.236929 C1166.58194,454.247286 1167.23427,455.468474 1168.41845,455.468474 C1169.56391,455.468474 1170.18784,454.283431 1171.07856,452.331595 C1171.22572,452.008871 1171.3746,451.683565 1171.52779,451.365144 C1172.38236,449.6035 1173.85313,447.261814 1176.7585,447.261814 C1179.56491,447.261814 1180.99523,449.470107 1181.92725,451.394404 C1182.06925,451.687007 1182.20781,451.985635 1182.3455,452.283401 C1183.27753,454.305806 1183.929,455.533879 1185.09942,455.533879 C1186.29909,455.533879 1186.97208,454.278267 1187.93595,452.211111 C1188.05987,451.944326 1188.18552,451.67668 1188.31289,451.414198 L1188.35506,451.327277 C1189.46437,449.035506 1190.84563,446.184345 1193.44205,446.184345 C1195.99458,446.184345 1197.50063,448.849616 1198.71063,451.347071 C1198.85521,451.643977 1198.99291,451.943465 1199.1306,452.23865 C1200.00067,454.128523 1200.5962,455.286027 1201.78727,455.286027 C1203.13669,455.286027 1204.28128,454.166389 1205.49903,451.655165 C1205.64877,451.34621 1205.79163,451.032092 1205.93363,450.721417 C1206.80627,448.804865 1207.79682,446.632717 1210.13076,446.632717 C1212.80464,446.632717 1214.10586,449.313479 1215.15063,451.467555 L1215.39762,451.981332 C1216.42431,454.129384 1217.19369,455.537322 1218.47856,455.537322 C1219.54828,455.537322 1220.12144,454.403914 1220.93901,452.536417 C1221.11802,452.127633 1221.29874,451.715407 1221.49324,451.315229 C1222.8504,448.514844 1224.64561,447.093997 1226.82722,447.093997 C1227.30313,447.093997 1227.68782,447.479545 1227.68782,447.954595 C1227.68782,448.430505 1227.30313,448.815192 1226.82722,448.815192 C1225.34097,448.815192 1224.10171,449.878891 1223.04145,452.066531 C1222.85728,452.446054 1222.68602,452.838487 1222.51563,453.226617 C1221.68859,455.116489 1220.7514,457.258517 1218.47856,457.258517" id="Fill-1-Copy-3"></path>
                    <path d="M256.342637,119.559895 C255.376235,117.577552 254.726299,116.662908 253.478184,116.662908 C252.230809,116.662908 251.305074,117.442241 250.338673,119.424584 C249.39889,121.352211 248.533047,124.227016 246.26899,124.227016 C244.003455,124.227016 242.563095,121.632446 241.623312,119.704818 C240.656171,117.722475 240.304215,115.627742 239.056839,115.627742 C237.810203,115.627742 237.446416,117.71656 236.480015,119.698903 C235.540232,121.62653 234.112442,123.697602 231.847646,123.697602 C229.583589,123.697602 228.894464,121.26644 227.955421,119.338813 C226.989019,117.35647 225.886567,116.674739 224.64067,116.674739 C223.394035,116.674739 222.217642,117.320239 221.25124,119.302582 C220.312197,121.23021 219.697752,123.656196 217.433695,123.656196 C215.168899,123.656196 214.049441,121.476431 213.109658,119.548064 C212.143256,117.56646 211.471138,115.950862 210.224502,115.950862 C208.977866,115.950862 207.7682,117.304711 206.801798,119.286315 C205.862015,121.214682 205.280104,123.543067 203.016048,123.543067 C200.751252,123.543067 199.154138,121.709344 198.214355,119.781716 C197.247953,117.799373 197.05349,116.097264 195.806115,116.097264 C195.397963,116.097264 195.357296,115.909455 195.357296,115.501304 C195.357296,115.092413 195.397963,114.220655 195.806115,114.220655 C198.07091,114.220655 199.110513,116.95867 200.050296,118.886297 C201.016698,120.868641 201.768672,122.29791 203.016048,122.29791 C204.262683,122.29791 204.47859,120.607631 205.444991,118.625288 C206.384774,116.69766 207.959706,115.10868 210.224502,115.10868 C212.488558,115.10868 213.530379,116.957931 214.470162,118.885558 C215.436564,120.867901 216.18632,121.531147 217.433695,121.531147 C218.679592,121.531147 219.270376,120.790264 220.236038,118.807921 C221.175821,116.880293 222.376614,114.702008 224.64067,114.702008 C226.904727,114.702008 228.184636,116.841105 229.12368,118.768732 C230.090081,120.751076 230.60101,122.553004 231.847646,122.553004 C233.095021,122.553004 233.9409,120.914484 234.907301,118.932141 C235.847085,117.004513 236.792783,114.463919 239.056839,114.463919 C241.321635,114.463919 242.275467,117.000816 243.215989,118.928443 C244.182391,120.910787 245.020876,122.53304 246.26899,122.53304 C247.515626,122.53304 248.382948,120.924836 249.350089,118.943232 C250.289872,117.014865 251.213388,115.229942 253.478184,115.229942 C255.743719,115.229942 256.678326,117.010428 257.618849,118.938056 C258.585251,120.920399 259.444439,121.866837 260.692553,121.866837 C261.940668,121.866837 262.717782,120.880471 263.684184,118.898128 C264.624706,116.9705 265.641387,114.428428 267.906923,114.428428 C268.315074,114.428428 268.335038,115.092413 268.335038,115.501304 C268.335038,115.909455 268.315074,115.861394 267.906923,115.861394 C266.658808,115.861394 266.087988,117.616001 265.120847,119.598344 C264.180324,121.525971 262.958089,123.731615 260.692553,123.731615 C258.427018,123.731615 257.283159,121.487522 256.342637,119.559895 Z" id="Fill-1"></path>
                    <path d="M54.5073796,340.458232 C53.6515223,339.233922 53.0759304,338.669032 51.9705844,338.669032 C50.8658933,338.669032 50.0460514,339.150353 49.1901941,340.374663 C48.3579105,341.565179 47.5911094,343.340679 45.5860328,343.340679 C43.5796466,343.340679 42.3040459,341.738254 41.4717623,340.547737 C40.6152502,339.323428 40.3035531,338.029706 39.1988619,338.029706 C38.0948256,338.029706 37.7726513,339.319775 36.916794,340.544084 C36.0845104,341.7346 34.8200418,343.013709 32.8143103,343.013709 C30.8092337,343.013709 30.1989361,341.512206 29.3673073,340.32169 C28.51145,339.09738 27.5351047,338.676339 26.4317232,338.676339 C25.3276869,338.676339 24.2858591,339.075004 23.4300017,340.299313 C22.598373,341.48983 22.0542127,342.988136 20.0491361,342.988136 C18.0434047,342.988136 17.0519984,341.641898 16.2197148,340.450925 C15.3638575,339.227072 14.7686208,338.229267 13.6645845,338.229267 C12.5605482,338.229267 11.4892532,339.065414 10.6333959,340.289267 C9.80111227,341.48024 9.28576436,342.918267 7.28068775,342.918267 C5.27495631,342.918267 3.86053257,341.785747 3.02824897,340.59523 C2.17239165,339.370921 2.00017246,338.319686 0.895481327,338.319686 C0.534017483,338.319686 0.498002063,338.203694 0.498002063,337.951617 C0.498002063,337.699083 0.534017483,337.160679 0.895481327,337.160679 C2.90121277,337.160679 3.82189785,338.851697 4.65418144,340.042213 C5.51003877,341.266522 6.17599661,342.149249 7.28068775,342.149249 C8.38472405,342.149249 8.57593319,341.105321 9.43179051,339.881012 C10.2640741,338.690495 11.6588531,337.70913 13.6645845,337.70913 C15.6696611,337.70913 16.5923107,338.85124 17.4245943,340.041756 C18.2804516,341.266066 18.944445,341.675691 20.0491361,341.675691 C21.1525176,341.675691 21.6757234,341.218116 22.5309259,339.993807 C23.3632095,338.80329 24.4266466,337.457966 26.4317232,337.457966 C28.4367998,337.457966 29.5703033,338.779087 30.4019321,339.969604 C31.2577894,341.193913 31.710274,342.306797 32.8143103,342.306797 C33.9190015,342.306797 34.6681222,341.294835 35.5239795,340.070526 C36.3562631,338.88001 37.1937853,337.310921 39.1988619,337.310921 C41.2045934,337.310921 42.0493187,338.877726 42.8822571,340.068243 C43.7381144,341.292552 44.4806869,342.294467 45.5860328,342.294467 C46.6900691,342.294467 47.4581798,341.301229 48.314692,340.077376 C49.1469756,338.886403 49.964853,337.784022 51.9705844,337.784022 C53.9769707,337.784022 54.8046705,338.883663 55.6376089,340.074179 C56.4934663,341.298489 57.2543738,341.883015 58.3597198,341.883015 C59.4650658,341.883015 60.1532877,341.273829 61.009145,340.04952 C61.8420834,338.859003 62.7424689,337.289001 64.7488552,337.289001 C65.110319,337.289001 65.1279993,337.699083 65.1279993,337.951617 C65.1279993,338.203694 65.110319,338.174011 64.7488552,338.174011 C63.6435092,338.174011 63.1379837,339.257669 62.2814715,340.481978 C61.4485331,341.672495 60.3661061,343.034716 58.3597198,343.034716 C56.3533335,343.034716 55.340318,341.648748 54.5073796,340.458232 Z" id="Fill-1-Copy-4" transform="translate(32.813001, 340.250679) rotate(-359.000000) translate(-32.813001, -340.250679) "></path>
                </g>
                <g id="Green-Square" transform="translate(243.000000, 509.000000) rotate(-341.000000) translate(-243.000000, -509.000000) translate(203.000000, 469.000000)">
                    <g id="Rectangle-423-Copy" transform="translate(37.301976, 43.036753) rotate(-11.000000) translate(-37.301976, -43.036753) ">
                        <use fill="#B8E986" xlink:href="#path-2"></use>
                        <use fill-opacity="0.5" fill="url(#linearGradient-1)" style="mix-blend-mode: soft-light;" xlink:href="#path-2"></use>
                    </g>
                    <use id="Rectangle-423-Copy-2" stroke="#FBD494" mask="url(#mask-4)" stroke-width="2" transform="translate(42.710449, 36.460274) rotate(-11.000000) translate(-42.710449, -36.460274) " xlink:href="#path-3"></use>
                </g>
                <g id="Yellow-Square" transform="translate(1259.000000, 242.000000) rotate(-193.000000) translate(-1259.000000, -242.000000) translate(1214.000000, 198.000000)">
                    <g id="Rectangle-423" transform="translate(38.716317, 49.448738) rotate(-354.000000) translate(-38.716317, -49.448738) ">
                        <use fill="#F8E81C" xlink:href="#path-6"></use>
                        <use fill-opacity="0.5" fill="url(#linearGradient-5)" style="mix-blend-mode: soft-light;" xlink:href="#path-6"></use>
                    </g>
                    <use id="Rectangle-423" stroke="#50E3C2" mask="url(#mask-8)" stroke-width="2" transform="translate(50.943820, 38.968021) rotate(-354.000000) translate(-50.943820, -38.968021) " xlink:href="#path-7"></use>
                </g>
                <g id="Pink-Square" transform="translate(1083.500000, 509.000000) rotate(-10.000000) translate(-1083.500000, -509.000000) translate(1048.000000, 473.000000)">
                    <g id="Rectangle-424" transform="translate(33.576053, 38.839569) rotate(-7.000000) translate(-33.576053, -38.839569) ">
                        <use fill="#E38DF4" xlink:href="#path-10"></use>
                        <use fill-opacity="0.5" fill="url(#linearGradient-9)" style="mix-blend-mode: soft-light;" xlink:href="#path-10"></use>
                    </g>
                    <use id="Rectangle-424" stroke="#95C2F7" mask="url(#mask-12)" stroke-width="2" transform="translate(37.847217, 33.297483) rotate(-7.000000) translate(-37.847217, -33.297483) " xlink:href="#path-11"></use>
                </g>
                <g id="Blue-Square" transform="translate(611.000000, 0.000000)">
                    <g id="Rectangle-421" transform="translate(51.304511, 48.791367) rotate(-10.000000) translate(-51.304511, -48.791367) ">
                        <use fill="#95C2F7" xlink:href="#path-13"></use>
                        <use fill-opacity="0.5" fill="url(#linearGradient-5)" style="mix-blend-mode: soft-light;" xlink:href="#path-13"></use>
                    </g>
                    <use id="Rectangle-421" stroke="#E38DF4" mask="url(#mask-15)" stroke-width="2" transform="translate(45.252837, 45.008693) rotate(-10.000000) translate(-45.252837, -45.008693) " xlink:href="#path-14"></use>
                </g>
                <g id="Green-Squares" transform="translate(60.234375, 242.000000) rotate(-15.000000) translate(-60.234375, -242.000000) translate(11.734375, 193.000000)">
                    <g id="Rectangle-423-Copy" transform="translate(44.883043, 53.157735) rotate(-6.000000) translate(-44.883043, -53.157735) ">
                        <use fill="#50E3C2" xlink:href="#path-16"></use>
                        <use fill-opacity="0.5" fill="url(#linearGradient-1)" style="mix-blend-mode: soft-light;" xlink:href="#path-16"></use>
                    </g>
                    <use id="Rectangle-423-Copy-2" stroke="#F8E81C" mask="url(#mask-18)" stroke-width="2" transform="translate(51.777165, 44.511540) rotate(-6.000000) translate(-51.777165, -44.511540) " xlink:href="#path-17"></use>
                </g>
            </g>
        </g>
    </g>
</svg>