<?xml version="1.0" encoding="UTF-8" standalone="no"?>
<svg width="102px" height="16px" viewBox="0 0 102 16" version="1.1" xmlns="http://www.w3.org/2000/svg" xmlns:xlink="http://www.w3.org/1999/xlink">
    <!-- Generator: Sketch 3.7.1 (28215) - http://www.bohemiancoding.com/sketch -->
    <title>hr</title>
    <desc>Created with Sketch.</desc>
    <defs>
        <polygon id="path-1" points="0.0005 15.177 101.1755 15.177 101.1755 0.0004 0.0005 0.0004"></polygon>
    </defs>
    <g id="Page-1" stroke="none" stroke-width="1" fill="none" fill-rule="evenodd">
        <g id="Web" transform="translate(-669.000000, -1150.000000)">
            <g id="hr" transform="translate(720.000000, 1158.000000) rotate(-180.000000) translate(-720.000000, -1158.000000) translate(669.000000, 1150.000000)">
                <mask id="mask-2" fill="white">
                    <use xlink:href="#path-1"></use>
                </mask>
                <g></g>
                <path d="M84.0555,8.0644 C82.9135,5.7224 81.4345,5.0524 80.3275,5.0524 C79.2225,5.0524 78.0245,5.8594 76.8825,8.2004 C75.5525,10.9284 74.2645,14.3764 70.5775,14.3764 C66.8885,14.3764 65.3455,11.0524 64.0155,8.3244 C62.8735,5.9824 61.9295,5.0654 60.8235,5.0654 C59.7185,5.0654 59.4935,6.3334 58.3525,8.6754 C57.0225,11.4034 54.7615,14.1154 51.0735,14.1154 C47.3865,14.1154 45.1325,11.3994 43.8025,8.6714 C42.6615,6.3304 42.4305,5.1214 41.3265,5.1214 C40.2225,5.1214 39.7095,6.1924 38.5685,8.5344 C37.2385,11.2624 35.2665,15.1774 31.5795,15.1774 C27.8915,15.1774 26.6975,10.8824 25.3675,8.1544 C24.2265,5.8124 22.9345,4.6784 21.8295,4.6784 C20.7245,4.6784 20.5665,6.3654 19.4255,8.7074 C18.0945,11.4354 15.7675,14.3774 12.0805,14.3774 C8.3925,14.3774 6.2495,11.3464 4.9195,8.6174 C3.7775,6.2764 4.00000004,4.51639979 2.00000004,4.51639979 C0.5,4.51639979 -1.83403184e-12,3.49999993 2.91322522e-13,2.50340002 C2.41749058e-12,1.50680009 1.39600004,0.499999993 2.50000004,0.499999993 C6.18800004,0.499999993 7.9965,3.7404 9.3265,6.4684 C10.4685,8.8104 10.9755,11.1624 12.0805,11.1624 C13.1845,11.1624 14.5295,9.2194 15.6705,6.8774 C17.0005,4.1494 18.1415,1.0024 21.8295,1.0024 C25.5165,1.0024 27.4405,3.7674 28.7715,6.4954 C29.9125,8.8374 30.4745,11.2104 31.5795,11.2104 C32.6835,11.2104 34.1305,9.2694 35.2715,6.9274 C36.6005,4.1994 37.6395,0.6964 41.3265,0.6964 C45.0135,0.6964 46.3375,4.0594 47.6675,6.7874 C48.8085,9.1294 49.9695,10.2154 51.0735,10.2154 C52.1785,10.2154 53.4845,9.2004 54.6255,6.8584 C55.9555,4.1304 57.1365,0.8034 60.8235,0.8034 C64.5115,0.8034 66.2355,3.8654 67.5655,6.5934 C68.7075,8.9344 69.4715,11.0994 70.5775,11.0994 C71.6825,11.0994 72.5375,8.9804 73.6795,6.6384 C75.0095,3.9104 76.6395,0.3224 80.3275,0.3224 C84.0165,0.3224 85.7735,3.8494 87.1035,6.5774 C88.2465,8.9184 88.9775,9.7634 90.0845,9.7634 C91.1915,9.7634 92.1595,9.0344 93.3015,6.6924 C94.6325,3.9644 96.1525,0.0004 99.8415,0.0004 C100.9455,0.0004 101.1755,1.3984 101.1755,2.5034 C101.1755,3.6074 100.9455,4.5164 99.8415,4.5164 C98.7345,4.5164 97.8125,5.9944 96.6695,8.3354 C95.3385,11.0644 93.7735,14.9924 90.0845,14.9924 C86.3955,14.9924 85.3865,10.7924 84.0555,8.0644 Z" id="Fill-1" fill="#666666" mask="url(#mask-2)"></path>
            </g>
        </g>
    </g>
</svg>