<?xml version="1.0" encoding="UTF-8" standalone="no"?>
<svg width="57px" height="46px" viewBox="0 0 57 46" version="1.1" xmlns="http://www.w3.org/2000/svg" xmlns:xlink="http://www.w3.org/1999/xlink">
    <!-- Generator: Sketch 3.7.1 (28215) - http://www.bohemiancoding.com/sketch -->
    <title>ico-export</title>
    <desc>Created with Sketch.</desc>
    <defs>
        <polygon id="path-1" points="14 38 33.8823529 38 33.8823529 64 14 64"></polygon>
        <mask id="mask-2" maskContentUnits="userSpaceOnUse" maskUnits="objectBoundingBox" x="0" y="0" width="19.8823529" height="26" fill="white">
            <use xlink:href="#path-1"></use>
        </mask>
        <polygon id="path-3" points="33.5 23.5 74.5 23.5 74.5 49.5 33.5 49.5"></polygon>
        <mask id="mask-4" maskContentUnits="userSpaceOnUse" maskUnits="objectBoundingBox" x="0" y="0" width="41" height="26" fill="white">
            <use xlink:href="#path-3"></use>
        </mask>
    </defs>
    <g id="Page-1" stroke="none" stroke-width="1" fill="none" fill-rule="evenodd">
        <g id="Desktop" transform="translate(-304.000000, -275.000000)">
            <g id="ico-export" transform="translate(294.000000, 260.000000)">
                <rect id="Rectangle-480-Copy-5" x="0" y="0" width="78" height="78"></rect>
                <use id="Rectangle-478" stroke="#E53A40" mask="url(#mask-2)" stroke-width="4" fill="#FFFFFF" transform="translate(23.941176, 51.000000) rotate(-270.000000) translate(-23.941176, -51.000000) " xlink:href="#path-1"></use>
                <use id="Rectangle-478-Copy" stroke="#E53A40" mask="url(#mask-4)" stroke-width="4" fill="#FFFFFF" transform="translate(54.000000, 36.500000) rotate(-270.000000) translate(-54.000000, -36.500000) " xlink:href="#path-3"></use>
                <rect id="Rectangle-498" fill="#FFFFFF" x="24" y="37" width="8" height="10"></rect>
                <g id="Arrow" transform="translate(32.899495, 36.899495) rotate(-315.000000) translate(-32.899495, -36.899495) translate(27.399495, 28.399495)" stroke="#979797" stroke-width="2" stroke-linecap="square">
                    <path d="M5.5,16.5 L5.5,1.5" id="Line"></path>
                    <path d="M5.5,0.5 L10.0276928,5.02769279" id="Line"></path>
                    <path d="M0.5,0.5 L5.02769279,5.02769279" id="Line" transform="translate(3.000000, 3.000000) scale(-1, 1) translate(-3.000000, -3.000000) "></path>
                </g>
                <path d="M46,31 L62,31" id="Line-Copy-2" stroke="#979797" stroke-width="2" stroke-linecap="square"></path>
                <path d="M46,46 L62,46" id="Line-Copy-5" stroke="#979797" stroke-width="2" stroke-linecap="square"></path>
                <path d="M16,51 L32,51" id="Line-Copy-8" stroke="#979797" stroke-width="2" stroke-linecap="square"></path>
                <path d="M46,26 L62,26" id="Line-Copy-4" stroke="#979797" stroke-width="2" stroke-linecap="square"></path>
                <path d="M44,18 L64,18" id="Line-Copy-11" stroke="#E53A40" stroke-width="6" stroke-linecap="square"></path>
                <circle id="Oval-3" fill="#FFFFFF" cx="43" cy="18" r="1"></circle>
                <circle id="Oval-3-Copy" fill="#FFFFFF" cx="46" cy="18" r="1"></circle>
                <circle id="Oval-3-Copy-2" fill="#FFFFFF" cx="49" cy="18" r="1"></circle>
                <path d="M46,41 L62,41" id="Line-Copy-6" stroke="#979797" stroke-width="2" stroke-linecap="square"></path>
                <path d="M16,46 L32,46" id="Line-Copy-9" stroke="#979797" stroke-width="2" stroke-linecap="square"></path>
                <path d="M46,36 L62,36" id="Line-Copy-3" stroke="#979797" stroke-width="2" stroke-linecap="square"></path>
                <path d="M46,51 L62,51" id="Line-Copy-7" stroke="#979797" stroke-width="2" stroke-linecap="square"></path>
                <path d="M16,56 L32,56" id="Line-Copy-10" stroke="#979797" stroke-width="2" stroke-linecap="square"></path>
            </g>
        </g>
    </g>
</svg>