<?xml version="1.0" encoding="UTF-8" standalone="no"?>
<svg width="24px" height="20px" viewBox="0 0 24 20" version="1.1" xmlns="http://www.w3.org/2000/svg" xmlns:xlink="http://www.w3.org/1999/xlink">
    <!-- Generator: Sketch 3.7.1 (28215) - http://www.bohemiancoding.com/sketch -->
    <title>ico-twitter</title>
    <desc>Created with Sketch.</desc>
    <defs></defs>
    <g id="Page-1" stroke="none" stroke-width="1" fill="none" fill-rule="evenodd">
        <g id="UI-Elments" transform="translate(-708.000000, -823.000000)" fill="#E53940">
            <g id="Header-text" transform="translate(281.000000, 151.000000)">
                <path d="M451,674.300781 C450.109375,674.699219 449.171875,674.96875 448.164062,675.085938 C449.195312,674.476562 449.96875,673.503906 450.332031,672.355469 C449.394531,672.917969 448.328125,673.328125 447.226562,673.550781 C446.300781,672.613281 445.023438,672.003906 443.605469,672.003906 C440.886719,672.003906 438.695312,674.195312 438.695312,676.914062 C438.695312,677.300781 438.71875,677.699219 438.800781,678.050781 C434.722656,677.828125 431.113281,675.976562 428.664062,673 C428.253906,673.726562 427.996094,674.476562 427.996094,675.390625 C427.996094,677.078125 428.863281,678.578125 430.199219,679.46875 C429.390625,679.445312 428.640625,679.222656 427.972656,678.859375 L427.972656,678.917969 C427.972656,681.308594 429.671875,683.300781 431.921875,683.746094 C431.5,683.863281 431.054688,683.921875 430.609375,683.921875 C430.304688,683.921875 430,683.886719 429.695312,683.828125 C430.304688,685.773438 432.144531,687.226562 434.277344,687.25 C432.613281,688.585938 430.46875,689.582031 428.171875,689.582031 C427.773438,689.582031 427.386719,689.558594 427,689.5 C429.167969,690.894531 431.78125,691.503906 434.558594,691.503906 C443.605469,691.503906 448.550781,684.003906 448.550781,677.5 L448.550781,676.855469 C449.5,676.164062 450.332031,675.308594 451,674.300781 L451,674.300781 Z" id="ico-twitter"></path>
            </g>
        </g>
    </g>
</svg>