<?xml version="1.0" encoding="UTF-8" standalone="no"?>
<svg width="141px" height="141px" viewBox="0 0 141 141" version="1.1" xmlns="http://www.w3.org/2000/svg" xmlns:xlink="http://www.w3.org/1999/xlink">
    <!-- Generator: Sketch 3.7.1 (28215) - http://www.bohemiancoding.com/sketch -->
    <title>ico-beta</title>
    <desc>Created with Sketch.</desc>
    <defs></defs>
    <g id="Page-1" stroke="none" stroke-width="1" fill="none" fill-rule="evenodd">
        <g id="Web" transform="translate(-230.000000, -1449.000000)">
            <g id="ico-beta" transform="translate(230.000000, 1449.000000)">
                <path d="M49.1411282,46.2904276 C48.0800216,46.2904276 48.0800216,46.3559364 47.0189149,46.3559364 C45.9574474,46.3559364 45.850254,46.8903316 44.8393153,46.5713322 C44.7079402,45.8592799 44.6491101,44.9713508 44.331139,44.2596545 C44.9107776,43.3453794 45.1211943,43.5732362 45.9509508,42.8711526 C46.7807073,42.1687131 46.7846775,42.1736975 47.614434,41.4712579 C47.8335128,41.2854123 47.9901523,40.9585803 47.9901523,40.6737594 C47.9901523,39.033547 47.7631333,39.033547 47.7631333,37.3929786 C47.7631333,36.8493267 47.4339737,36.5566732 46.8835697,36.5566732 C46.3324439,36.5566732 46.0462339,36.8493267 46.0462339,37.3929786 C46.0480385,38.8081825 46.1989033,38.8299 45.7445042,40.1717625 C45.4608206,41.009492 45.2471556,40.8282747 44.5700685,41.4057491 C43.8929814,41.9835795 44.1026763,42.4684871 43.240076,42.7045324 C42.7470584,42.0537166 42.0537299,41.3619579 41.4102084,40.8930715 C41.493942,40.5847528 41.502965,40.2162658 41.502965,39.8848055 C41.502965,39.1189933 41.3383852,38.4265224 40.9265748,37.8159376 C40.5194563,37.2117613 39.8993947,36.8411381 39.2103972,36.498641 C38.5668757,36.1785735 37.9049473,35.940392 37.1170576,35.940392 C36.3291679,35.940392 35.6076875,36.0617969 34.9641661,36.3818644 C34.2751686,36.7243615 33.6810932,37.1900437 33.2739748,37.79422 C32.8625253,38.4044488 32.8134401,39.1189933 32.8134401,39.8848055 C32.8134401,40.2262345 32.8289596,40.6609424 32.9173852,40.9778057 C32.2778338,41.4495403 31.5325328,42.0804186 31.0442072,42.7326585 C30.1758321,42.4884246 30.3613453,42.0391196 29.6813709,41.4527445 C29.0010355,40.8667255 28.6296482,41.0782051 28.3423554,40.233355 C27.8865126,38.8918486 28.3459646,38.8088945 28.3459646,37.3936906 C28.3459646,36.8489707 27.893731,36.3879168 27.3433271,36.3879168 C26.7918403,36.3879168 26.4128737,36.8493267 26.4128737,37.3940467 C26.4092645,39.034259 26.4814486,39.0346151 26.4774785,40.6748274 C26.4774785,40.9592923 26.5648213,41.0920901 26.784261,41.2797158 C27.6291762,41.9839355 27.5490518,42.0772144 28.3954107,42.78001 C29.2417695,43.4824495 29.5655153,43.2392837 30.167531,44.1546268 C29.8589438,44.8545742 29.5658763,45.8393425 29.4373885,46.5513947 C28.4253671,46.8711062 28.3243093,46.5307452 27.2613981,46.5307452 C26.1988478,46.5307452 26.1988478,46.3441875 25.1362974,46.3441875 C24.5848107,46.3441875 24.0892667,46.9198818 24.0892667,47.4638897 C24.0892667,48.0071856 24.5848107,48.3628557 25.1362974,48.3628557 C26.1696132,48.3628557 26.1696132,48.6209746 27.202568,48.6209746 C28.2358838,48.6209746 28.3889141,47.9915204 29.307818,48.4575586 C29.3478802,49.525637 29.6091867,50.4235349 29.8953968,51.25628 C29.3662872,52.1363766 29.007893,51.8786137 28.216755,52.5404663 C27.4259779,53.2023189 27.3577639,53.122925 26.5673477,53.7854897 C26.3486298,53.9720473 26.1320774,54.2860624 26.1320774,54.5708833 C26.1320774,56.2110957 26.1717787,56.2110957 26.1717787,57.8513081 C26.1717787,58.39496 26.7369804,58.9015851 27.2881062,58.9015851 C27.8395929,58.9015851 28.2578999,58.39496 28.2578999,57.8513081 C28.2578999,56.4361042 27.8042227,56.3218198 28.4170659,55.0419059 C29.0721369,53.6726294 29.2244454,53.5241665 30.6212082,52.8964924 C31.0889613,53.6434352 31.8118853,54.3280735 32.4615424,54.880626 C33.1281628,55.4481317 33.7630222,56.0647689 34.5750936,56.3737996 C35.3763374,56.678202 36.2591493,56.869744 37.1567589,56.869744 C38.0496765,56.869744 38.8469501,56.4428687 39.656856,56.1409585 C40.4739803,55.8365562 41.3878313,55.670292 42.0627529,55.111687 C42.7254032,54.5630507 43.2570393,53.7238971 43.7273188,52.9808706 C45.1432105,53.5878952 45.363372,53.6598124 46.0393764,55.0287329 C46.6677392,56.3011703 46.2100918,56.4361042 46.2100918,57.8513081 C46.2100918,58.39496 46.427727,58.940392 46.9795746,58.940392 C47.5299785,58.940392 48.0854354,58.3942479 48.0854354,57.850596 C48.0771342,56.2103836 47.7883977,56.2121638 47.7793747,54.5719514 C47.7793747,54.2867744 47.8678003,53.9161512 47.6498042,53.7299496 C46.8842916,53.0794898 46.6818151,53.3116189 45.9163024,52.6615152 C45.1504289,52.0114115 44.9717732,52.1096747 44.472259,51.2434631 C44.7671312,50.3982571 45.0168882,49.6840686 45.0580332,48.6159903 C45.9754934,48.1503081 46.0458729,48.490313 47.077745,48.490313 C48.1092562,48.490313 48.1092562,48.3639238 49.1411282,48.3639238 C49.6926149,48.3639238 50.0892667,48.0071856 50.0892667,47.4638897 C50.0892667,46.9198818 49.6926149,46.2904276 49.1411282,46.2904276" id="Fill-1" fill="#E53A40" transform="translate(37.095271, 47.603874) rotate(-330.000000) translate(-37.095271, -47.603874) "></path>
                <path d="M55,95 C32.1684587,95 14,76.8313162 14,54 C14,32.1676804 32.1684587,14 55,14 C76.8315413,14 95,32.1676804 95,54 C95,76.8313162 76.8315413,95 55,95 M138,127 L98,87 C104.808813,77.9173078 108.831806,66.6501532 109,54 C108.831806,24.4308501 84.4208492,0 54,0 C24.4109564,0 0,24.4308501 0,54 C0,84.4896478 24.4109564,108.920498 54,109 C66.653881,108.920498 77.9598608,104.854194 87,98 L127,138 C129.776768,140.755364 134.716759,140.755364 138,138 C140.754749,134.712454 140.754749,129.769438 138,127" id="Fill-1" fill="#666666"></path>
            </g>
        </g>
    </g>
</svg>