<?xml version="1.0" encoding="UTF-8" standalone="no"?>
<svg width="56px" height="45px" viewBox="0 0 56 45" version="1.1" xmlns="http://www.w3.org/2000/svg" xmlns:xlink="http://www.w3.org/1999/xlink">
    <!-- Generator: Sketch 3.7.1 (28215) - http://www.bohemiancoding.com/sketch -->
    <title>ico-photos</title>
    <desc>Created with Sketch.</desc>
    <defs>
        <rect id="path-1" x="13.75" y="19.6507148" width="45" height="33.75"></rect>
        <mask id="mask-2" maskContentUnits="userSpaceOnUse" maskUnits="objectBoundingBox" x="0" y="0" width="45" height="33.75" fill="white">
            <use xlink:href="#path-1"></use>
        </mask>
    </defs>
    <g id="Page-1" stroke="none" stroke-width="1" fill="none" fill-rule="evenodd">
        <g id="Desktop" transform="translate(-197.000000, -158.000000)">
            <g id="ico-photos" transform="translate(186.000000, 142.000000)">
                <rect id="Rectangle-480" x="0" y="0" width="78" height="78"></rect>
                <use id="Rectangle-478" stroke="#979797" mask="url(#mask-2)" stroke-width="4" fill="#FFFFFF" transform="translate(36.250000, 36.525715) rotate(-10.000000) translate(-36.250000, -36.525715) " xlink:href="#path-1"></use>
                <polygon id="Path" fill="#FFFFFF" points="60.625 55.375 26.875 55.375 32.5 46.9375 39.0625 51.625 49.375 38.5"></polygon>
                <path d="M66.25,27.25 L21.25,27.25 L21.25,61 L66.25,61 L66.25,27.25 Z M31.09375,32.875 C33.4375,32.875 35.3125,34.75 35.3125,37.09375 C35.3125,39.4375 33.4375,41.3125 31.09375,41.3125 C28.75,41.3125 26.875,39.4375 26.875,37.09375 C26.875,34.75 28.75,32.875 31.09375,32.875 L31.09375,32.875 Z M60.625,55.375 L26.875,55.375 L32.5,46.9375 L39.0625,51.625 L49.375,38.5 L60.625,55.375 Z" id="image" fill="#E53A40"></path>
            </g>
        </g>
    </g>
</svg>