<?xml version="1.0" encoding="UTF-8" standalone="no"?>
<svg width="164px" height="137px" viewBox="0 0 164 137" version="1.1" xmlns="http://www.w3.org/2000/svg" xmlns:xlink="http://www.w3.org/1999/xlink">
    <!-- Generator: Sketch 3.7.1 (28215) - http://www.bohemiancoding.com/sketch -->
    <title>ico-company</title>
    <desc>Created with Sketch.</desc>
    <defs></defs>
    <g id="Page-1" stroke="none" stroke-width="1" fill="none" fill-rule="evenodd">
        <g id="Web" transform="translate(-1058.000000, -1451.000000)">
            <g id="Info:-Signups" transform="translate(969.000000, 1398.000000)">
                <g id="ico-company" transform="translate(89.000000, 53.000000)">
                    <path d="M45,65 L10,65 C4.340875,65 0,69.8675 0,76 L0,115 C0,118.4985 13.75,120 28,120 C41.25,120 55,118.4985 55,115 L55,76 C55,69.8675 50.659125,65 45,65 M46,75 L46,109 C42.3432308,109.466923 36.3367692,110 28,110 C19.6632308,110 13.6567692,109.466923 10,109 L10,78.9960486 C10,76.2368071 12.2383594,74 15.0056458,74 L46,74 C45.7743077,74.1813846 46,74.5912308 46,75 Z" id="Fill-3" fill="#666666"></path>
                    <path d="M27.3731643,59.1650994 C19.4730381,59.1650994 13.0455595,52.7376207 13.0455595,44.8361144 C13.0455595,36.9359882 19.4730381,30.5085096 27.3731643,30.5085096 C35.2746706,30.5085096 41.7021492,36.9359882 41.7021492,44.8361144 C41.7021492,52.7376207 35.2746706,59.1650994 27.3731643,59.1650994" id="Fill-5" fill="#FFFFFF"></path>
                    <path d="M28,27 C18.0596181,27 10,35.0585336 10,45 C10,54.9414664 18.0596181,63 28,63 C37.9403819,63 46,54.9414664 46,45 C46,35.0585336 37.9403819,27 28,27 M28,34 C34.0652119,34 39,38.9351012 39,45 C39,51.0648988 34.0652119,56 28,56 C21.9347881,56 17,51.0648988 17,45 C17,38.9351012 21.9347881,34 28,34" id="Fill-7" fill="#666666"></path>
                    <path d="M114.291804,113.585568 L114.291804,76.0834321 C114.291804,72.729605 116.490424,70.0009974 119.192809,70.0009974 L154.936601,70.0009974 C157.638985,70.0009974 159.837605,72.729605 159.837605,76.0834321 L159.837605,113.585568 C156.646639,114.521328 148.72305,115.546798 137.064705,115.546798 C125.40636,115.546798 117.482771,114.521328 114.291804,113.585568 Z" id="Fill-9" fill="#FFFFFF"></path>
                    <path d="M154,65 L119,65 C113.340875,65 109,69.8675 109,76 L109,115 C109,118.4985 122.75,120 137,120 C150.25,120 164,118.4985 164,115 L164,76 C164,69.8675 159.659125,65 154,65 M149.994354,74 C152.758896,74 155,76.2426503 155,78.9960486 L155,109 C151.343231,109.466923 145.336769,110 137,110 C128.663231,110 122.656769,109.466923 119,109 L119,75 C119,74.5912308 119.224308,74.1813846 119,74 L149.994354,74 Z" id="Fill-11" fill="#666666"></path>
                    <path d="M136.835596,59.1650994 C128.934089,59.1650994 122.506611,52.7376207 122.506611,44.8361144 C122.506611,36.9359882 128.934089,30.5085096 136.835596,30.5085096 C144.735722,30.5085096 151.1632,36.9359882 151.1632,44.8361144 C151.1632,52.7376207 144.735722,59.1650994 136.835596,59.1650994" id="Fill-13" fill="#FFFFFF"></path>
                    <path d="M137,27 C127.059618,27 119,35.0585336 119,45 C119,54.9414664 127.059618,63 137,63 C146.940382,63 155,54.9414664 155,45 C155,35.0585336 146.940382,27 137,27 M137,34 C143.065212,34 148,38.9351012 148,45 C148,51.0648988 143.065212,56 137,56 C130.934788,56 126,51.0648988 126,45 C126,38.9351012 130.934788,34 137,34" id="Fill-15" fill="#666666"></path>
                    <path d="M82,131 C63.74304,131 51.58524,129.011094 48,127 L48,70 C48,63.1650943 52.05306,58 57,58 L108,58 C112.94556,58 117,63.1650943 117,70 L117,127 C113.41476,129.011094 101.25696,131 82,131" id="Fill-17" fill="#FFFFFF"></path>
                    <path d="M108,54 L57,54 C49.2354561,54 43,61.3455 43,70 L43,130 C43,134.7341 62.75,137 83,137 C102.25,137 122,134.7341 122,130 L122,70 C122,61.3455 115.76593,54 108,54 M106.995144,63 C109.75925,63 112,65.2433664 112,67.991886 L112,124 C106.923256,124.848196 96.6476512,126 83,126 C68.3537209,126 58.0767442,124.848196 53,124 L53,67.991886 C53,65.2349435 55.2408247,63 58.0048556,63 L106.995144,63 Z" id="Fill-19" fill="#E53A40"></path>
                    <path d="M82.6138718,47.3459641 C70.5111104,47.3459641 60.6663166,37.49979 60.6663166,25.3984088 C60.6663166,13.2956474 70.5111104,3.45085351 82.6138718,3.45085351 C94.7166333,3.45085351 104.561427,13.2956474 104.561427,25.3984088 C104.561427,37.49979 94.7166333,47.3459641 82.6138718,47.3459641" id="Fill-21" fill="#FFFFFF"></path>
                    <path d="M83,0 C68.4169384,0 57,11.4169384 57,26 C57,39.5830616 68.4169384,51 83,51 C96.5830616,51 108,39.5830616 108,26 C108,11.4169384 96.5830616,0 83,0 M83,7 C92.7010894,7 101,15.2989106 101,26 C101,35.7010894 92.7010894,44 83,44 C72.2989106,44 64,35.7010894 64,26 C64,15.2989106 72.2989106,7 83,7" id="Fill-23" fill="#E53A40"></path>
                </g>
            </g>
        </g>
    </g>
</svg>