<?xml version="1.0" encoding="UTF-8" standalone="no"?>
<svg width="24px" height="24px" viewBox="0 0 24 24" version="1.1" xmlns="http://www.w3.org/2000/svg" xmlns:xlink="http://www.w3.org/1999/xlink">
    <!-- Generator: Sketch 3.7.1 (28215) - http://www.bohemiancoding.com/sketch -->
    <title>icos-instagram</title>
    <desc>Created with Sketch.</desc>
    <defs></defs>
    <g id="Page-1" stroke="none" stroke-width="1" fill="none" fill-rule="evenodd">
        <g id="UI-Elments" transform="translate(-762.000000, -821.000000)" fill="#E53940">
            <g id="Header-text" transform="translate(281.000000, 151.000000)">
                <path d="M501.496094,670 L484.503906,670 C482.570312,670 481,671.570312 481,673.503906 L481,690.496094 C481,692.429688 482.570312,694 484.503906,694 L501.496094,694 C503.429688,694 505,692.429688 505,690.496094 L505,673.503906 C505,671.570312 503.429688,670 501.496094,670 L501.496094,670 Z M493,677.5 C495.484375,677.5 497.5,679.515625 497.5,682 C497.5,684.484375 495.484375,686.5 493,686.5 C490.515625,686.5 488.5,684.484375 488.5,682 C488.5,679.515625 490.515625,677.5 493,677.5 L493,677.5 Z M502.503906,691 C502.503906,691.28125 502.28125,691.503906 502,691.503906 L484,691.503906 C483.71875,691.503906 483.496094,691.28125 483.496094,691 L483.496094,680.5 L486.15625,680.5 C486.050781,680.980469 486.003906,681.484375 486.003906,682 C486.003906,685.867188 489.132812,688.996094 493,688.996094 C496.867188,688.996094 499.996094,685.867188 499.996094,682 C499.996094,681.484375 499.949219,680.980469 499.84375,680.5 L502.503906,680.5 L502.503906,691 Z M502.503906,676 C502.503906,676.28125 502.28125,676.503906 502,676.503906 L499,676.503906 C498.71875,676.503906 498.496094,676.28125 498.496094,676 L498.496094,673 C498.496094,672.71875 498.71875,672.496094 499,672.496094 L502,672.496094 C502.28125,672.496094 502.503906,672.71875 502.503906,673 L502.503906,676 Z" id="icos-instagram"></path>
            </g>
        </g>
    </g>
</svg>