<?xml version="1.0" encoding="UTF-8" standalone="no"?>
<svg width="172px" height="64px" viewBox="0 0 172 64" version="1.1" xmlns="http://www.w3.org/2000/svg" xmlns:xlink="http://www.w3.org/1999/xlink">
    <!-- Generator: Sketch 3.7.1 (28215) - http://www.bohemiancoding.com/sketch -->
    <title>Logo</title>
    <desc>Created with Sketch.</desc>
    <defs>
        <polygon id="path-1" points="0 64 172 64 172 0 0 0"></polygon>
    </defs>
    <g id="Page-1" stroke="none" stroke-width="1" fill="none" fill-rule="evenodd">
        <g id="Web" transform="translate(-75.000000, -75.000000)">
            <g id="Logo" transform="translate(75.000000, 75.000000)">
                <polygon id="Fill-1" fill="#FFFFFF" points="6 61 169 61 169 6 6 6"></polygon>
                <path d="M0,64 L172,64 L172,0 L0,0 L0,64 Z M8,55 L163,55 L163,8 L8,8 L8,55 Z" id="Fill-2" fill="#E53940"></path>
                <g id="Group-21">
                    <path d="M18.9075,38.3283 L21.6095,38.3283 C22.7385,38.3283 23.5855,38.1893 24.1495,37.9113 C24.7135,37.6333 24.9965,37.0863 24.9965,36.2693 C24.9965,35.4523 24.6965,34.9143 24.0985,34.6523 C23.5015,34.3913 22.5455,34.2613 21.2315,34.2613 L18.9075,34.2613 L18.9075,38.3283 L18.9075,38.3283 Z M18.9075,31.1533 L20.7775,31.1533 C21.8715,31.1533 22.6835,31.0353 23.2155,30.7993 C23.7445,30.5643 24.0115,30.0543 24.0115,29.2713 C24.0115,28.4883 23.7665,27.9703 23.2775,27.7183 C22.7895,27.4653 21.9635,27.3393 20.8025,27.3393 L18.9075,27.3393 L18.9075,31.1533 L18.9075,31.1533 Z M22.6965,41.6633 L14.9665,41.6633 L14.9665,24.0043 L21.8385,24.0043 C23.0345,24.0043 24.0655,24.1473 24.9325,24.4333 C25.8005,24.7193 26.4515,25.1073 26.8915,25.5953 C27.6825,26.5053 28.0785,27.5323 28.0785,28.6783 C28.0785,30.0583 27.6315,31.0863 26.7385,31.7603 C26.4355,31.9963 26.2245,32.1433 26.1065,32.2013 C25.9895,32.2613 25.7795,32.3583 25.4745,32.4923 C26.5705,32.7283 27.4425,33.2213 28.0905,33.9703 C28.7385,34.7193 29.0635,35.6503 29.0635,36.7613 C29.0635,37.9923 28.6425,39.0773 27.8005,40.0203 C26.8235,41.1163 25.1215,41.6633 22.6965,41.6633 L22.6965,41.6633 Z" id="Fill-3" fill="#E53940"></path>
                    <path d="M33.6361,34.867 C33.6361,35.979 33.9521,36.884 34.5831,37.583 C35.2151,38.282 36.0241,38.632 37.0091,38.632 C37.9951,38.632 38.8021,38.282 39.4341,37.583 C40.0651,36.884 40.3811,35.979 40.3811,34.867 C40.3811,33.756 40.0651,32.846 39.4341,32.139 C38.8021,31.431 37.9951,31.078 37.0091,31.078 C36.0241,31.078 35.2151,31.431 34.5831,32.139 C33.9521,32.846 33.6361,33.756 33.6361,34.867 M44.1951,34.867 C44.1951,36.837 43.5141,38.497 42.1491,39.844 C40.7861,41.192 39.0721,41.865 37.0091,41.865 C34.9451,41.865 33.2311,41.192 31.8681,39.844 C30.5031,38.497 29.8221,36.837 29.8221,34.867 C29.8221,32.897 30.5031,31.234 31.8681,29.878 C33.2311,28.522 34.9451,27.844 37.0091,27.844 C39.0721,27.844 40.7861,28.522 42.1491,29.878 C43.5141,31.234 44.1951,32.897 44.1951,34.867" id="Fill-5" fill="#E53940"></path>
                    <path d="M53.4667,36.4838 L53.4667,35.8278 L51.0937,35.8278 C49.5767,35.8278 48.8187,36.2988 48.8187,37.2418 C48.8187,37.7308 48.9997,38.1058 49.3617,38.3658 C49.7247,38.6278 50.2417,38.7578 50.9157,38.7578 C51.5897,38.7578 52.1837,38.5518 52.6967,38.1388 C53.2097,37.7268 53.4667,37.1748 53.4667,36.4838 L53.4667,36.4838 Z M57.2827,41.6628 L53.7197,41.6628 L53.7197,40.0208 C52.7427,41.2498 51.5337,41.8658 50.0947,41.8658 C48.6547,41.8658 47.4467,41.4488 46.4697,40.6148 C45.4927,39.7808 45.0047,38.6698 45.0047,37.2798 C45.0047,35.8898 45.5097,34.8508 46.5197,34.1598 C47.5307,33.4698 48.9107,33.1248 50.6637,33.1248 L53.4927,33.1248 L53.4927,33.0478 C53.4927,31.5998 52.7267,30.8758 51.1937,30.8758 C50.5377,30.8758 49.8417,31.0058 49.1097,31.2678 C48.3767,31.5278 47.7577,31.8528 47.2527,32.2398 L45.5607,29.7898 C47.3447,28.4928 49.3827,27.8438 51.6737,27.8438 C53.3237,27.8438 54.6707,28.2568 55.7167,29.0818 C56.7597,29.9078 57.2827,31.2128 57.2827,32.9978 L57.2827,41.6628 Z" id="Fill-7" fill="#E53940"></path>
                    <path d="M66.6295,31.4064 C65.5015,31.4064 64.6595,31.8064 64.1035,32.6064 C63.5475,33.4064 63.2695,34.4634 63.2695,35.7764 L63.2695,41.6634 L59.4795,41.6634 L59.4795,28.0714 L63.2695,28.0714 L63.2695,29.8654 C63.7575,29.3094 64.3675,28.8384 65.1015,28.4504 C65.8335,28.0634 66.5785,27.8614 67.3365,27.8434 L67.3635,31.4064 L66.6295,31.4064 Z" id="Fill-9" fill="#E53940"></path>
                    <path d="M71.4799,34.8925 C71.4799,35.9875 71.8089,36.8845 72.4649,37.5835 C73.1229,38.2825 73.8899,38.6315 74.7649,38.6315 C75.6399,38.6315 76.3859,38.2825 77.0009,37.5835 C77.6149,36.8845 77.9219,35.9825 77.9219,34.8805 C77.9219,33.7775 77.6149,32.8585 77.0009,32.1265 C76.3859,31.3935 75.6309,31.0275 74.7399,31.0275 C73.8469,31.0275 73.0799,31.3985 72.4409,32.1395 C71.8009,32.8805 71.4799,33.7975 71.4799,34.8925 M73.8679,41.8655 C72.2599,41.8655 70.8239,41.1825 69.5609,39.8185 C68.2969,38.4555 67.6659,36.7615 67.6659,34.7415 C67.6659,32.7195 68.2809,31.0655 69.5099,29.7765 C70.7399,28.4885 72.1789,27.8435 73.8299,27.8435 C75.4799,27.8435 76.8269,28.4255 77.8709,29.5875 L77.8709,22.9175 L81.6609,22.9175 L81.6609,41.6635 L77.8709,41.6635 L77.8709,39.8695 C76.8109,41.2005 75.4769,41.8655 73.8679,41.8655" id="Fill-11" fill="#E53940"></path>
                    <path d="M88.5078,30.7995 L88.5078,36.8885 C88.5078,37.4105 88.6428,37.8195 88.9128,38.1135 C89.1808,38.4085 89.5008,38.5555 89.8708,38.5555 C90.5788,38.5555 91.1768,38.2365 91.6658,37.5955 L93.0798,40.2485 C91.9008,41.3265 90.6588,41.8655 89.3528,41.8655 C88.0488,41.8655 86.9458,41.4365 86.0438,40.5765 C85.1428,39.7185 84.6918,38.5475 84.6918,37.0655 L84.6918,30.7995 L83.1018,30.7995 L83.1018,28.0715 L84.6918,28.0715 L84.6918,24.0045 L88.5078,24.0045 L88.5078,28.0715 L91.7928,28.0715 L91.7928,30.7995 L88.5078,30.7995 Z" id="Fill-13" fill="#E53940"></path>
                    <path d="M97.6262,34.3365 L97.6262,41.6625 L93.8372,41.6625 L93.8372,22.9175 L97.6262,22.9175 L97.6262,29.5875 C98.7722,28.4255 100.0552,27.8435 101.4802,27.8435 C102.9022,27.8435 104.1032,28.3495 105.0802,29.3595 C106.0552,30.3705 106.5442,31.7185 106.5442,33.4025 L106.5442,41.6625 L102.7542,41.6625 L102.7542,34.2355 C102.7542,32.1475 101.9882,31.1025 100.4572,31.1025 C99.6982,31.1025 99.0372,31.3765 98.4732,31.9235 C97.9092,32.4715 97.6262,33.2755 97.6262,34.3365" id="Fill-15" fill="#E53940"></path>
                    <mask id="mask-2" fill="white">
                        <use xlink:href="#path-1"></use>
                    </mask>
                    <g id="Clip-18"></g>
                    <path d="M108.717,41.663 L112.506,41.663 L112.506,28.072 L108.717,28.072 L108.717,41.663 Z M109.032,26.341 C108.603,25.911 108.389,25.385 108.389,24.762 C108.389,24.139 108.603,23.613 109.032,23.183 C109.462,22.753 109.988,22.539 110.611,22.539 C111.235,22.539 111.761,22.753 112.19,23.183 C112.62,23.613 112.835,24.139 112.835,24.762 C112.835,25.385 112.62,25.911 112.19,26.341 C111.761,26.771 111.235,26.985 110.611,26.985 C109.988,26.985 109.462,26.771 109.032,26.341 L109.032,26.341 Z" id="Fill-17" fill="#E53940" mask="url(#mask-2)"></path>
                    <path d="M118.6197,34.0841 L118.6197,41.6631 L114.8307,41.6631 L114.8307,28.0721 L118.6197,28.0721 L118.6197,29.5871 C119.7657,28.4251 121.0537,27.8441 122.4847,27.8441 C123.9177,27.8441 125.1167,28.3501 126.0847,29.3591 C127.0537,30.3701 127.5377,31.7181 127.5377,33.4021 L127.5377,41.6631 L123.7477,41.6631 L123.7477,33.9831 C123.7477,31.8951 122.9817,30.8501 121.4507,30.8501 C120.6917,30.8501 120.0307,31.1241 119.4667,31.6711 C118.9027,32.2191 118.6197,33.0231 118.6197,34.0841" id="Fill-19" fill="#E53940" mask="url(#mask-2)"></path>
                    <path d="M139.2348,34.5767 C139.2348,33.4907 138.9318,32.6357 138.3248,32.0127 C137.7188,31.3897 136.9698,31.0777 136.0768,31.0777 C135.1838,31.0777 134.4138,31.3897 133.7658,32.0127 C133.1168,32.6357 132.7928,33.4867 132.7928,34.5647 C132.7928,35.6427 133.1078,36.5137 133.7398,37.1787 C134.3718,37.8437 135.1428,38.1767 136.0518,38.1767 C136.9618,38.1767 137.7188,37.8477 138.3248,37.1917 C138.9318,36.5347 139.2348,35.6627 139.2348,34.5767 M139.7658,39.3637 C138.5688,40.6947 137.0838,41.3597 135.3068,41.3597 C133.5288,41.3597 132.0308,40.7577 130.8088,39.5537 C129.5888,38.3497 128.9778,36.7407 128.9778,34.7277 C128.9778,32.7157 129.6048,31.0647 130.8598,29.7767 C132.1148,28.4887 133.5508,27.8437 135.1678,27.8437 C136.7838,27.8437 138.1228,28.5097 139.1838,29.8397 L139.1838,28.0467 L142.9728,28.0467 L142.9728,39.8947 C142.9728,41.1067 142.7628,42.1857 142.3418,43.1287 C141.9208,44.0707 141.3568,44.8117 140.6488,45.3517 C139.2508,46.4637 137.6018,47.0187 135.6988,47.0187 C134.6868,47.0187 133.6558,46.8547 132.6028,46.5267 C131.5508,46.1977 130.6278,45.7307 129.8368,45.1247 L131.3018,42.2687 C132.5488,43.2127 133.8668,43.6847 135.2558,43.6847 C136.6458,43.6847 137.7448,43.3387 138.5518,42.6487 C139.3618,41.9577 139.7658,40.8637 139.7658,39.3637" id="Fill-20" fill="#E53940" mask="url(#mask-2)"></path>
                </g>
            </g>
        </g>
    </g>
</svg>